# xmcd CD database file
#
# Track frame offsets:
#	150
#	12207
#	23712
#	33480
#	44672
#	55995
#	65962
#	75507
#	87672
#	100125
#	114777
#	128560
#	139752
#	151355
#	161847
#	171490
#	181917
#	190417
#	200415
#	221427
#	234437
#	252162
#	266445
#	275397
#	288272
#	298580
#
# Disc length: 4123 seconds
#
# Revision: 1
# Processed by: cddbd v1.5.1PL0 Copyright (c) Steve Scherf et al.
# Submitted via: CDex 1.51
#
DISCID=7910191a
DTITLE=Marty Robbins - Hits And Other Favorites
DYEAR=1990
DGENRE=Country
TTITLE0=I'll Go On Alone
TTITLE1=That's All Right
TTITLE2=Knee Deep In The Blues
TTITLE3=Singing The Blues
TTITLE4=Mabelline
TTITLE5=Mean Mama Blues
TTITLE6=Long Tall Sally
TTITLE7=Pretty Mama
TTITLE8=You Don't Owe Me A Thing
TTITLE9=Tennesse Toddy
TTITLE10=Respectfully Miss Brown
TTITLE11=A White Sport Coat
TTITLE12=The Story Of My Life
TTITLE13=Please Don't Blame Me
TTITLE14=Just Married
TTITLE15=Grown Up Tears
TTITLE16=Teenage Dream
TTITLE17=Stairway To Love
TTITLE18=El Paso
TTITLE19=The Hanging Tree
TTITLE20=Big Iron
TTITLE21=Don't Worry
TTITLE22=Ruby Ann
TTITLE23=Devil Woman
TTITLE24=Ain't I The Lucky One
TTITLE25=She Was Only Seventeen
EXTD=SPA YEAR: 1990
EXTT0=
EXTT1=
EXTT2=
EXTT3=
EXTT4=
EXTT5=
EXTT6=
EXTT7=
EXTT8=
EXTT9=
EXTT10=
EXTT11=
EXTT12=
EXTT13=
EXTT14=
EXTT15=
EXTT16=
EXTT17=
EXTT18=
EXTT19=
EXTT20=
EXTT21=
EXTT22=
EXTT23=
EXTT24=
EXTT25=
PLAYORDER=
